<svg id="основа" xmlns="http://www.w3.org/2000/svg" xmlns:xlink="http://www.w3.org/1999/xlink" viewBox="0 0 128 128"><defs><style>.cls-1{fill:none;}.cls-2{fill:#31db92;}.cls-3{clip-path:url(#clip-path);}.cls-4{fill:#128e59;}.cls-5{fill:#138f5a;}.cls-6{fill:#13905a;}.cls-7{fill:#14915b;}.cls-8{fill:#14925c;}.cls-9{fill:#15935d;}.cls-10{fill:#15945d;}.cls-11{fill:#16955e;}.cls-12{fill:#16965f;}.cls-13{fill:#17975f;}.cls-14{fill:#189860;}.cls-15{fill:#189961;}.cls-16{fill:#199a62;}.cls-17{fill:#199b62;}.cls-18{fill:#1a9c63;}.cls-19{fill:#1a9d64;}.cls-20{fill:#1b9e65;}.cls-21{fill:#1b9f65;}.cls-22{fill:#1ca066;}.cls-23{fill:#1ca167;}.cls-24{fill:#1da267;}.cls-25{fill:#1ea368;}.cls-26{fill:#1ea469;}.cls-27{fill:#1fa56a;}.cls-28{fill:#1fa66a;}.cls-29{fill:#20a76b;}.cls-30{fill:#20a86c;}.cls-31{fill:#21a96c;}.cls-32{fill:#21aa6d;}.cls-33{fill:#22ab6e;}.cls-34{fill:#23ac6f;}.cls-35{fill:#23ad6f;}.cls-36{fill:#24ae70;}.cls-37{fill:#24af71;}.cls-38{fill:#25b071;}.cls-39{fill:#25b172;}.cls-40{fill:#26b273;}.cls-41{fill:#26b374;}.cls-42{fill:#27b474;}.cls-43{fill:#27b575;}.cls-44{fill:#28b676;}.cls-45{fill:#29b776;}.cls-46{fill:#29b877;}.cls-47{fill:#2ab978;}.cls-48{fill:#2aba79;}.cls-49{fill:#2bbc79;}.cls-50{fill:#2bbd7a;}.cls-51{fill:#2cbe7b;}.cls-52{fill:#2cbf7c;}.cls-53{fill:#2dc07c;}.cls-54{fill:#2ec17d;}.cls-55{fill:#2ec27e;}.cls-56{fill:#2fc37e;}.cls-57{fill:#2fc47f;}.cls-58{fill:#30c580;}.cls-59{fill:#30c681;}.cls-60{fill:#31c781;}.cls-61{fill:#31c882;}.cls-62{fill:#32c983;}.cls-63{fill:#32ca83;}.cls-64{fill:#33cb84;}.cls-65{fill:#34cc85;}.cls-66{fill:#34cd86;}.cls-67{fill:#35ce86;}.cls-68{fill:#35cf87;}.cls-69{fill:#36d088;}.cls-70{fill:#36d188;}.cls-71{fill:#37d289;}.cls-72{fill:#37d38a;}.cls-73{fill:#38d48b;}.cls-74{fill:#39d58b;}.cls-75{fill:#39d68c;}.cls-76{fill:#3ad78d;}.cls-77{fill:#3ad88d;}.cls-78{fill:#3bd98e;}.cls-79{fill:#3bda8f;}.cls-80{fill:#3cdb90;}.cls-81{fill:#3cdc90;}.cls-82{fill:#3ddd91;}.cls-83{fill:#3dde92;}.cls-84{fill:#3edf93;}.cls-85{fill:#3fe093;}.cls-86{fill:#3fe194;}.cls-87{fill:#40e295;}.cls-88{fill:#40e395;}.cls-89{fill:#41e496;}.cls-90{fill:#41e597;}.cls-91{fill:#42e698;}.cls-92{fill:#42e798;}.cls-93{fill:#43e899;}.cls-94{fill:#7fd7e5;}.cls-95{fill:#fff;}</style><clipPath id="clip-path"><path class="cls-1" d="M127.5,64A62.81,62.81,0,0,1,124,84.73c-0.29.83-.59,1.64-0.91,2.44a63.13,63.13,0,0,1-40.15,37.08,62.2,62.2,0,0,1-14.47,2.62q-2,.12-4,0.13a63,63,0,0,1-18.25-2.69l-27.91-30L42.49,79.11,27.08,61l17.12-27.8,12.33,13L76.86,19.87l17,17.76,16.63-1.21,17,24.89C127.48,62.2,127.5,63.1,127.5,64Z"/></clipPath></defs><title>Weather icons</title><path class="cls-2" d="M127.5,64A62.81,62.81,0,0,1,124,84.73c-0.29.83-.59,1.64-0.91,2.44a63.13,63.13,0,0,1-40.15,37.08,62.2,62.2,0,0,1-14.47,2.62q-2,.12-4,0.13a63,63,0,1,1,62.94-65.69C127.48,62.2,127.5,63.1,127.5,64Z"/><g class="cls-3"><polygon class="cls-4" points="76.86 20 18 43.51 18 20 76.86 20"/><polygon class="cls-4" points="79.8 20 18 44.7 18 43.51 76.86 20 79.8 20"/><polygon class="cls-5" points="82.75 20 18 45.89 18 44.7 79.8 20 82.75 20"/><polygon class="cls-6" points="85.69 20 18 47.08 18 45.89 82.75 20 85.69 20"/><polygon class="cls-7" points="88.64 20 18 48.27 18 47.08 85.69 20 88.64 20"/><polygon class="cls-8" points="91.58 20 18 49.46 18 48.27 88.64 20 91.58 20"/><polygon class="cls-9" points="94.53 20 18 50.65 18 49.46 91.58 20 94.53 20"/><polygon class="cls-10" points="97.47 20 18 51.84 18 50.65 94.53 20 97.47 20"/><polygon class="cls-11" points="100.42 20 18 53.03 18 51.84 97.47 20 100.42 20"/><polygon class="cls-12" points="103.36 20 18 54.22 18 53.03 100.42 20 103.36 20"/><polygon class="cls-13" points="106.31 20 18 55.41 18 54.22 103.36 20 106.31 20"/><polygon class="cls-14" points="109.26 20 18 56.6 18 55.41 106.31 20 109.26 20"/><polygon class="cls-15" points="112.07 20 111.92 19.98 18 57.79 18 56.6 109.26 20 112.07 20"/><polygon class="cls-16" points="111.92 19.91 112.25 20.94 18 58.98 18 57.79 111.92 19.91"/><polygon class="cls-17" points="112.33 20.94 112.66 21.96 18 60.17 18 58.98 112.33 20.94"/><polygon class="cls-18" points="112.75 21.96 113.07 22.98 18 61.36 18 60.17 112.75 21.96"/><polygon class="cls-19" points="113.16 22.98 113.49 24 18 62.55 18 61.36 113.16 22.98"/><polygon class="cls-20" points="113.57 24 113.9 25.03 18 63.74 18 62.55 113.57 24"/><polygon class="cls-21" points="113.98 25.03 114.31 26.05 18 64.93 18 63.74 113.98 25.03"/><polygon class="cls-22" points="114.4 26.05 114.73 27.07 18 66.12 18 64.93 114.4 26.05"/><polygon class="cls-23" points="114.81 27.07 115.14 28.1 18 67.31 18 66.12 114.81 27.07"/><polygon class="cls-24" points="115.22 28.1 115.55 29.12 18 68.5 18 67.31 115.22 28.1"/><polygon class="cls-25" points="115.64 29.12 115.97 30.14 18 69.69 18 68.5 115.64 29.12"/><polygon class="cls-26" points="116.05 30.14 116.38 31.17 18 70.88 18 69.69 116.05 30.14"/><polygon class="cls-27" points="116.47 31.17 116.79 32.19 18 72.07 18 70.88 116.47 31.17"/><polygon class="cls-28" points="116.88 32.19 117.21 33.21 18 73.26 18 72.07 116.88 32.19"/><polygon class="cls-29" points="117.29 33.21 117.62 34.23 18 74.45 18 73.26 117.29 33.21"/><polygon class="cls-30" points="117.7 34.23 118.03 35.26 18 75.64 18 74.45 117.7 34.23"/><polygon class="cls-31" points="118.12 35.26 118.45 36.28 18 76.83 18 75.64 118.12 35.26"/><polygon class="cls-32" points="118.53 36.28 118.86 37.3 18 78.02 18 76.83 118.53 36.28"/><polygon class="cls-33" points="118.94 37.3 119.27 38.33 18 79.21 18 78.02 118.94 37.3"/><polygon class="cls-34" points="119.36 38.33 119.69 39.35 18 80.4 18 79.21 119.36 38.33"/><polygon class="cls-35" points="119.77 39.35 120.1 40.37 18 81.59 18 80.4 119.77 39.35"/><polygon class="cls-36" points="120.19 40.37 120.51 41.4 18 82.78 18 81.59 120.19 40.37"/><polygon class="cls-37" points="120.6 41.4 120.93 42.42 18 83.97 18 82.78 120.6 41.4"/><polygon class="cls-38" points="121.01 42.42 121.34 43.44 18 85.16 18 83.97 121.01 42.42"/><polygon class="cls-39" points="121.42 43.44 121.75 44.47 18 86.35 18 85.16 121.42 43.44"/><polygon class="cls-40" points="121.84 44.47 122.17 45.49 18 87.54 18 86.35 121.84 44.47"/><polygon class="cls-41" points="122.25 45.49 122.58 46.51 18 88.73 18 87.54 122.25 45.49"/><polygon class="cls-42" points="122.67 46.51 122.99 47.53 18 89.92 18 88.73 122.67 46.51"/><polygon class="cls-43" points="123.08 47.53 123.41 48.56 18 91.11 18 89.92 123.08 47.53"/><polygon class="cls-44" points="123.49 48.56 123.82 49.58 18 92.3 18 91.11 123.49 48.56"/><polygon class="cls-45" points="123.91 49.58 124.23 50.6 18 93.49 18 92.3 123.91 49.58"/><polygon class="cls-46" points="124.32 50.6 124.65 51.63 18 94.68 18 93.49 124.32 50.6"/><polygon class="cls-47" points="124.73 51.63 125.06 52.65 18 95.87 18 94.68 124.73 51.63"/><polygon class="cls-48" points="125.14 52.65 125.47 53.67 18 97.06 18 95.87 125.14 52.65"/><polygon class="cls-49" points="125.56 53.67 126.06 54.7 18.32 98.17 18 97.69 18 97.06 125.56 53.67"/><rect class="cls-50" x="14.52" y="76.39" width="116.06" height="1.1" transform="translate(-23.54 32.78) rotate(-22)"/><rect class="cls-51" x="14.93" y="77.42" width="116.06" height="1.1" transform="translate(-23.89 33.01) rotate(-22)"/><rect class="cls-52" x="15.34" y="78.44" width="116.06" height="1.1" transform="translate(-24.25 33.24) rotate(-22)"/><polygon class="cls-53" points="127.13 57.76 127 58.06 127 58.91 19.94 102.26 19.53 101.24 127.13 57.76"/><polygon class="cls-54" points="127 60.1 20.35 103.29 19.81 102.26 127 58.91 127 60.1"/><polygon class="cls-55" points="127 61.29 20.77 104.31 20.23 103.29 127 60.1 127 61.29"/><polygon class="cls-56" points="127 62.48 21.18 105.33 20.64 104.31 127 61.29 127 62.48"/><polygon class="cls-57" points="127 63.67 21.59 106.36 21.05 105.33 127 62.48 127 63.67"/><polygon class="cls-58" points="127 64.86 22.01 107.38 21.47 106.36 127 63.67 127 64.86"/><polygon class="cls-59" points="127 66.05 22.42 108.4 21.88 107.38 127 64.86 127 66.05"/><polygon class="cls-60" points="127 67.24 22.83 109.42 22.29 108.4 127 66.05 127 67.24"/><polygon class="cls-61" points="127 68.43 23.25 110.45 22.71 109.42 127 67.24 127 68.43"/><polygon class="cls-62" points="127 69.62 23.66 111.47 23.12 110.45 127 68.43 127 69.62"/><polygon class="cls-63" points="127 70.81 24.07 112.49 23.53 111.47 127 69.62 127 70.81"/><polygon class="cls-64" points="127 72 24.49 113.52 23.95 112.49 127 70.81 127 72"/><polygon class="cls-65" points="127 73.19 24.9 114.54 24.36 113.52 127 72 127 73.19"/><polygon class="cls-66" points="127 74.38 25.31 115.56 24.77 114.54 127 73.19 127 74.38"/><polygon class="cls-67" points="127 75.57 25.73 116.58 25.19 115.56 127 74.38 127 75.57"/><polygon class="cls-68" points="127 76.76 26.14 117.61 25.6 116.58 127 75.57 127 76.76"/><polygon class="cls-69" points="127 77.95 26.55 118.63 26.01 117.61 127 76.76 127 77.95"/><polygon class="cls-70" points="127 79.14 26.97 119.65 26.43 118.63 127 77.95 127 79.14"/><polygon class="cls-71" points="127 80.33 27.38 120.68 26.84 119.65 127 79.14 127 80.33"/><polygon class="cls-72" points="127 81.52 27.79 121.7 27.25 120.68 127 80.33 127 81.52"/><polygon class="cls-73" points="127 82.71 28.21 122.72 27.67 121.7 127 81.52 127 82.71"/><polygon class="cls-74" points="127 83.9 28.62 123.75 28.08 122.72 127 82.71 127 83.9"/><polygon class="cls-75" points="127 85.09 29.03 124.77 28.49 123.75 127 83.9 127 85.09"/><polygon class="cls-76" points="127 86.28 29.45 125.79 28.91 124.77 127 85.09 127 86.28"/><polygon class="cls-77" points="127 87.47 29.86 126.81 29.32 125.79 127 86.28 127 87.47"/><polygon class="cls-78" points="127 88.66 32.6 127 30.18 127 29.86 126.81 127 87.47 127 88.66"/><polygon class="cls-79" points="127 89.85 35.54 127 32.6 127 127 88.66 127 89.85"/><polygon class="cls-80" points="127 91.04 38.49 127 35.54 127 127 89.85 127 91.04"/><polygon class="cls-81" points="127 92.23 41.43 127 38.49 127 127 91.04 127 92.23"/><polygon class="cls-82" points="127 93.42 44.38 127 41.43 127 127 92.23 127 93.42"/><polygon class="cls-83" points="127 94.61 47.32 127 44.38 127 127 93.42 127 94.61"/><polygon class="cls-84" points="127 95.8 50.27 127 47.32 127 127 94.61 127 95.8"/><polygon class="cls-85" points="127 96.99 53.21 127 50.27 127 127 95.8 127 96.99"/><polygon class="cls-86" points="127 98.18 56.16 127 53.21 127 127 96.99 127 98.18"/><polygon class="cls-87" points="127 99.37 59.1 127 56.16 127 127 98.18 127 99.37"/><polygon class="cls-88" points="127 100.56 62.05 127 59.1 127 127 99.37 127 100.56"/><polygon class="cls-89" points="127 101.75 64.99 127 62.05 127 127 100.56 127 101.75"/><polygon class="cls-90" points="127 102.94 67.94 127 64.99 127 127 101.75 127 102.94"/><polygon class="cls-91" points="127 104.13 70.89 127 67.94 127 127 102.94 127 104.13"/><polygon class="cls-92" points="127 105.32 73.83 127 70.89 127 127 104.13 127 105.32"/><polygon class="cls-93" points="127 106.51 76.78 127 73.83 127 127 105.32 127 106.51"/><polygon class="cls-93" points="76.78 127 127 106.51 127 127 76.78 127"/></g><path class="cls-94" d="M64.5,70.4A6.49,6.49,0,0,1,58,64V31l-4.22-3.69a6.46,6.46,0,0,1-2.17-4.42,6.37,6.37,0,0,1,1.6-4.62l6.3-7A6.39,6.39,0,1,1,69,19.82L67,22.1l1.69,1.32A6.61,6.61,0,0,1,71,28.18V64A6.49,6.49,0,0,1,64.5,70.4Z"/><path class="cls-94" d="M64.5,70.4A6.49,6.49,0,0,1,58,64V28.18a6.3,6.3,0,0,1,2.14-4.86L61.59,22l-2-2.15A6.39,6.39,0,1,1,69,11.22l6.47,7A6.39,6.39,0,0,1,77.12,23a6.18,6.18,0,0,1-2,4.48L71,31.13V64A6.49,6.49,0,0,1,64.5,70.4Z"/><path class="cls-94" d="M64.5,106.21a6.49,6.49,0,0,1-6.5-6.4V64a6.5,6.5,0,0,1,13,0V99.82A6.49,6.49,0,0,1,64.5,106.21Z"/><path class="cls-94" d="M64.51,70.4a6.4,6.4,0,0,1-3.25-11.91L92.12,40.32a6.4,6.4,0,1,1,6.49,11L67.74,69.51A6.37,6.37,0,0,1,64.51,70.4Z"/><path class="cls-94" d="M33.64,88.56a6.4,6.4,0,0,1-3.25-11.91L61.26,58.49a6.4,6.4,0,0,1,6.49,11L36.88,87.68A6.37,6.37,0,0,1,33.64,88.56Z"/><path class="cls-94" d="M95.58,88.18a6.37,6.37,0,0,1-3.17-.85L61.32,69.55a6.4,6.4,0,0,1,6.35-11.1L98.77,76.24A6.4,6.4,0,0,1,95.58,88.18Z"/><path class="cls-94" d="M64.49,70.4a6.36,6.36,0,0,1-3.17-.85L30.23,51.77a6.4,6.4,0,1,1,6.35-11.1L67.68,58.45A6.4,6.4,0,0,1,64.49,70.4Z"/><path class="cls-94" d="M64.5,47.85A6.4,6.4,0,0,1,60,36.93L70.05,26.86a6.4,6.4,0,1,1,9,9L69,46A6.38,6.38,0,0,1,64.5,47.85Z"/><path class="cls-94" d="M64.5,47.85A6.38,6.38,0,0,1,60,46L49.9,35.9a6.4,6.4,0,0,1,9-9L69,36.93A6.4,6.4,0,0,1,64.5,47.85Z"/><path class="cls-94" d="M54.43,64.63a6.4,6.4,0,0,1-6.32-7.45l1.6-9.59a6.4,6.4,0,0,1,9.54-4.47l8.47,5a6.4,6.4,0,1,1-6.46,11l-0.46-.27-0.07.43A6.4,6.4,0,0,1,54.43,64.63Z"/><path class="cls-94" d="M74.57,64.63a6.4,6.4,0,0,1-6.3-5.34l-0.07-.43-0.46.27a6.4,6.4,0,1,1-6.46-11l8.47-5a6.4,6.4,0,0,1,9.54,4.47l1.6,9.59A6.4,6.4,0,0,1,74.57,64.63Z"/><path class="cls-94" d="M63.64,70.74a6.4,6.4,0,0,1-3.28-11.89L88.62,42l1-5.51a6.4,6.4,0,0,1,7.56-5.12l9.32,1.89A6.4,6.4,0,1,1,104,45.79L101,45.19l-0.36,1.95a6.39,6.39,0,0,1-3,4.34L66.91,69.84A6.37,6.37,0,0,1,63.64,70.74Z"/><path class="cls-94" d="M63.64,70.74a6.4,6.4,0,0,1-3.28-11.89L91.11,40.5a6.4,6.4,0,0,1,5.25-.59l1.88,0.61,0.87-2.86a6.4,6.4,0,1,1,12.24,3.72l-2.76,9.1a6.4,6.4,0,0,1-8.09,4.22L95.17,53,66.91,69.84A6.37,6.37,0,0,1,63.64,70.74Z"/><path class="cls-94" d="M96.81,62.68a6.41,6.41,0,0,1-1.57-.2L81.43,59a6.4,6.4,0,1,1,3.13-12.4l13.81,3.49A6.4,6.4,0,0,1,96.81,62.68Z"/><path class="cls-94" d="M83,59.19a6.4,6.4,0,0,1-6.21-8l3.49-13.81a6.4,6.4,0,1,1,12.4,3.13L89.19,54.36A6.4,6.4,0,0,1,83,59.19Z"/><path class="cls-94" d="M73.75,76.44a6.4,6.4,0,0,1-4.14-11.27l0.33-.28-0.47-.26a6.4,6.4,0,0,1,6.17-11.2l8.6,4.74a6.4,6.4,0,0,1,1.05,10.48l-7.41,6.29A6.37,6.37,0,0,1,73.75,76.44Z"/><path class="cls-94" d="M64.26,118.93a6.4,6.4,0,0,1-4.68-10.75l1.93-2.07-1.37-1.26A6.3,6.3,0,0,1,58,100V64a6.5,6.5,0,0,1,13,0V97l4.1,3.68a6.28,6.28,0,0,1,2.13,4.5,6.44,6.44,0,0,1-1.76,4.72l-6.5,7A6.44,6.44,0,0,1,64.26,118.93Z"/><path class="cls-94" d="M64.26,118.93a6.38,6.38,0,0,1-4.74-2.1l-6.32-7a6.4,6.4,0,0,1-1.65-4.63,6.52,6.52,0,0,1,2.22-4.43L58,97.12V64a6.5,6.5,0,0,1,13,0v36a6.61,6.61,0,0,1-2.34,4.76L67.11,106,69,108.23A6.41,6.41,0,0,1,64.26,118.93Z"/><path class="cls-94" d="M54.43,103.18A6.4,6.4,0,0,1,49.9,92.26L60,82.18a6.4,6.4,0,1,1,9,9L58.95,101.3A6.38,6.38,0,0,1,54.43,103.18Z"/><path class="cls-94" d="M74.57,103.18a6.38,6.38,0,0,1-4.52-1.87L60,91.23a6.4,6.4,0,1,1,9-9L79.1,92.26A6.4,6.4,0,0,1,74.57,103.18Z"/><path class="cls-94" d="M56,85.91a6.4,6.4,0,0,1-6.31-5.34L48.12,71a6.4,6.4,0,0,1,12.62-2.1l0.07,0.43L61.27,69a6.4,6.4,0,1,1,6.46,11l-8.47,5A6.39,6.39,0,0,1,56,85.91Z"/><path class="cls-94" d="M106.49,94.9a6.4,6.4,0,0,1-6.1-4.5L99.5,87.55l-1.88.62a6.4,6.4,0,0,1-5.26-.55L61.48,69.48a6.4,6.4,0,0,1,6.48-11L96.34,75.12l5.31-1.77a6.4,6.4,0,0,1,8.12,4.17l2.83,9.08A6.4,6.4,0,0,1,106.49,94.9Z"/><path class="cls-94" d="M97.19,96.85a6.4,6.4,0,0,1-6.28-5.2l-1-5.5L61.48,69.48a6.4,6.4,0,0,1,6.48-11L98.84,76.59a6.4,6.4,0,0,1,3,4.32l0.37,1.95,2.93-.61a6.4,6.4,0,0,1,2.63,12.52l-9.31,2A6.41,6.41,0,0,1,97.19,96.85Z"/><path class="cls-94" d="M87.74,95.57a6.4,6.4,0,0,1-6.19-4.79L78,77a6.4,6.4,0,1,1,12.38-3.22l3.59,13.79A6.4,6.4,0,0,1,87.74,95.57Z"/><path class="cls-94" d="M84.15,81.78a6.4,6.4,0,0,1-1.61-12.59l13.79-3.59A6.4,6.4,0,0,1,99.56,78L85.77,81.57A6.41,6.41,0,0,1,84.15,81.78Z"/><path class="cls-94" d="M73.66,85.44A6.39,6.39,0,0,1,71.38,85L62.3,81.54a6.4,6.4,0,0,1-3.69-8.26,6.24,6.24,0,0,1,8.12-3.69L67,69.75V69.16C67,65.63,70.15,63,73.68,63h0a6.32,6.32,0,0,1,6.39,6.32l0,9.78A6.35,6.35,0,0,1,73.66,85.44Z"/><path class="cls-94" d="M63.47,70.23a6.36,6.36,0,0,1-3.31-.93L32,52.26,26.67,54a6.4,6.4,0,0,1-8.07-4.28L15.9,40.56a6.4,6.4,0,0,1,12.26-3.64L29,39.79l1.89-.6a6.39,6.39,0,0,1,5.25.63L66.79,58.37A6.4,6.4,0,0,1,63.47,70.23Z"/><path class="cls-94" d="M63.47,70.23a6.36,6.36,0,0,1-3.31-.93L29.52,50.75a6.39,6.39,0,0,1-3-4.36l-0.34-2L23.26,45A6.4,6.4,0,1,1,20.8,32.46l9.33-1.83a6.4,6.4,0,0,1,7.53,5.17l1,5.51,28.16,17A6.4,6.4,0,0,1,63.47,70.23Z"/><path class="cls-94" d="M44.19,58.56A6.4,6.4,0,0,1,38,53.68l-3.4-13.83A6.4,6.4,0,1,1,47,36.8l3.4,13.83A6.4,6.4,0,0,1,44.19,58.56Z"/><path class="cls-94" d="M30.35,62a6.4,6.4,0,0,1-1.52-12.61l13.83-3.4a6.4,6.4,0,0,1,3.05,12.42l-13.83,3.4A6.41,6.41,0,0,1,30.35,62Z"/><path class="cls-94" d="M31.14,97.47a6.4,6.4,0,0,1-1.33-.14l-9.3-2a6.4,6.4,0,0,1,2.65-12.51l2.92,0.62,0.37-1.95a6.39,6.39,0,0,1,3.05-4.31L60.44,59.12a6.4,6.4,0,0,1,6.46,11L38.48,86.78l-1.06,5.5A6.4,6.4,0,0,1,31.14,97.47Z"/><path class="cls-94" d="M21.84,95.5a6.4,6.4,0,0,1-6.1-8.31l2.85-9.07A6.4,6.4,0,0,1,26.72,74L32,75.74,60.44,59.12a6.4,6.4,0,0,1,6.46,11L36,88.24a6.39,6.39,0,0,1-5.26.54l-1.88-.63L27.94,91A6.4,6.4,0,0,1,21.84,95.5Z"/><path class="cls-94" d="M44.21,82.42a6.41,6.41,0,0,1-1.63-.21L28.8,78.6A6.4,6.4,0,0,1,32,66.23l13.78,3.61A6.4,6.4,0,0,1,44.21,82.42Z"/><path class="cls-94" d="M40.6,96.2a6.4,6.4,0,0,1-6.19-8L38,74.4a6.4,6.4,0,1,1,12.37,3.24L46.78,91.43A6.4,6.4,0,0,1,40.6,96.2Z"/><path class="cls-94" d="M54.69,76.29a6.37,6.37,0,0,1-3.13-.82L43,70.65a6.4,6.4,0,0,1-1-10.49l7.47-6.22a6.4,6.4,0,0,1,8.18,9.83l-0.34.28,0.47,0.26A6.4,6.4,0,0,1,54.69,76.29Z"/><path class="cls-95" d="M64.5,66.24A2.48,2.48,0,0,1,62,64V29.2l-5.5-4.93a2.17,2.17,0,0,1-.7-1.56,2.27,2.27,0,0,1,.61-1.63l6.41-7a2.24,2.24,0,0,1,3.33,3L61.29,22.4,66.1,26.5a2.38,2.38,0,0,1,.9,1.68V64A2.48,2.48,0,0,1,64.5,66.24Z"/><path class="cls-95" d="M64.5,66.24A2.48,2.48,0,0,1,62,64V28.18a2.38,2.38,0,0,1,.9-1.68l4.74-4.09-4.83-5.35a2.25,2.25,0,0,1,3.34-3l6.4,7a2.24,2.24,0,0,1,.58,1.63,2.11,2.11,0,0,1-.63,1.56L67,29.2V64A2.48,2.48,0,0,1,64.5,66.24Z"/><path class="cls-95" d="M64.5,102.06A2.48,2.48,0,0,1,62,99.82V64a2.52,2.52,0,0,1,5,0V99.82A2.48,2.48,0,0,1,64.5,102.06Z"/><path class="cls-95" d="M64.5,66.24a2.24,2.24,0,0,1-1.14-4.17L94.23,43.9a2.24,2.24,0,1,1,2.27,3.86L65.64,65.93A2.23,2.23,0,0,1,64.5,66.24Z"/><path class="cls-95" d="M33.63,84.41a2.24,2.24,0,0,1-1.14-4.17L63.36,62.07a2.24,2.24,0,1,1,2.27,3.86L34.77,84.1A2.23,2.23,0,0,1,33.63,84.41Z"/><path class="cls-95" d="M95.59,84a2.23,2.23,0,0,1-1.11-.3L63.39,65.94a2.24,2.24,0,0,1,2.22-3.89L96.7,79.84A2.24,2.24,0,0,1,95.59,84Z"/><path class="cls-95" d="M64.5,66.24a2.23,2.23,0,0,1-1.11-.3L32.3,48.16a2.24,2.24,0,0,1,2.22-3.89L65.61,62.06A2.24,2.24,0,0,1,64.5,66.24Z"/><path class="cls-95" d="M64.5,43.69a2.24,2.24,0,0,1-1.58-3.82L73,29.8A2.24,2.24,0,0,1,76.16,33L66.08,43A2.23,2.23,0,0,1,64.5,43.69Z"/><path class="cls-95" d="M64.5,43.69A2.23,2.23,0,0,1,62.92,43L52.84,33A2.24,2.24,0,0,1,56,29.8L66.08,39.87A2.24,2.24,0,0,1,64.5,43.69Z"/><path class="cls-95" d="M54.43,60.48a2.24,2.24,0,0,1-2.21-2.61l1.6-9.59a2.24,2.24,0,0,1,3.34-1.56l8.47,5a2.24,2.24,0,1,1-2.26,3.86L57.7,52.22,56.63,58.6A2.24,2.24,0,0,1,54.43,60.48Z"/><path class="cls-95" d="M74.57,60.48a2.24,2.24,0,0,1-2.21-1.87L71.3,52.22l-5.67,3.32a2.24,2.24,0,1,1-2.26-3.86l8.47-5a2.24,2.24,0,0,1,3.34,1.56l1.6,9.59A2.24,2.24,0,0,1,74.57,60.48Z"/><path class="cls-95" d="M63.63,66.58a2.24,2.24,0,0,1-1.15-4.16L92.37,44.59l1.35-7.36a2.24,2.24,0,0,1,2.65-1.79l9.32,1.89a2.24,2.24,0,1,1-.89,4.39l-7.08-1.43-1.12,6.12a2.24,2.24,0,0,1-1.05,1.52L64.78,66.27A2.23,2.23,0,0,1,63.63,66.58Z"/><path class="cls-95" d="M63.63,66.58a2.24,2.24,0,0,1-1.15-4.16L93.24,44.07a2.24,2.24,0,0,1,1.84-.21L101,45.78l2.1-6.91a2.24,2.24,0,1,1,4.28,1.3l-2.76,9.1a2.24,2.24,0,0,1-2.83,1.48l-7.12-2.31L64.78,66.27A2.23,2.23,0,0,1,63.63,66.58Z"/><path class="cls-95" d="M96.81,58.52a2.24,2.24,0,0,1-.55-0.07L82.44,55a2.24,2.24,0,0,1,1.1-4.34l13.81,3.49A2.24,2.24,0,0,1,96.81,58.52Z"/><path class="cls-95" d="M83,55a2.24,2.24,0,0,1-2.17-2.79l3.49-13.81a2.24,2.24,0,0,1,4.34,1.1L85.16,53.34A2.24,2.24,0,0,1,83,55Z"/><path class="cls-95" d="M73.75,72.28a2.24,2.24,0,0,1-1.45-3.95l4.94-4.19L71.48,61a2.24,2.24,0,1,1,2.16-3.92l8.6,4.74a2.24,2.24,0,0,1,.37,3.67l-7.41,6.29A2.23,2.23,0,0,1,73.75,72.28Z"/><path class="cls-95" d="M64.5,114.77A2.24,2.24,0,0,1,62.85,111l4.84-5.27-4.8-4.09A2.38,2.38,0,0,1,62,100V64a2.52,2.52,0,0,1,5,0V99l5.5,4.93a2.17,2.17,0,0,1,.7,1.56,2.27,2.27,0,0,1-.62,1.64l-6.41,7A2.27,2.27,0,0,1,64.5,114.77Z"/><path class="cls-95" d="M64.5,114.77a2.23,2.23,0,0,1-1.65-.72l-6.4-7a2.24,2.24,0,0,1-.59-1.64,2.11,2.11,0,0,1,.63-1.56L62,99V64a2.52,2.52,0,0,1,5,0v36a2.38,2.38,0,0,1-.9,1.68l-4.73,4.09L66.18,111a2.24,2.24,0,0,1-.15,3.16A2.27,2.27,0,0,1,64.5,114.77Z"/><path class="cls-95" d="M54.43,99a2.24,2.24,0,0,1-1.58-3.82L62.92,85.12a2.24,2.24,0,0,1,3.17,3.17L56,98.36A2.23,2.23,0,0,1,54.43,99Z"/><path class="cls-95" d="M74.57,99A2.23,2.23,0,0,1,73,98.36L62.92,88.29a2.24,2.24,0,0,1,3.17-3.17L76.16,95.2A2.24,2.24,0,0,1,74.57,99Z"/><path class="cls-95" d="M56,81.75a2.24,2.24,0,0,1-2.21-1.87l-1.6-9.59a2.24,2.24,0,0,1,4.42-.74l1.06,6.38,5.67-3.32a2.24,2.24,0,0,1,2.26,3.86l-8.47,5A2.24,2.24,0,0,1,56,81.75Z"/><path class="cls-95" d="M106.5,90.74a2.24,2.24,0,0,1-2.14-1.57l-2.15-6.9-5.9,2A2.24,2.24,0,0,1,94.47,84L63.58,65.9A2.24,2.24,0,0,1,65.85,62l30,17.62L103,77.3a2.24,2.24,0,0,1,2.84,1.46l2.83,9.08A2.24,2.24,0,0,1,106.5,90.74Z"/><path class="cls-95" d="M97.19,92.69A2.24,2.24,0,0,1,95,90.87l-1.4-7.35-30-17.62A2.24,2.24,0,0,1,65.85,62L96.74,80.17a2.24,2.24,0,0,1,1.07,1.51L99,87.79,106,86.31a2.24,2.24,0,0,1,.92,4.38l-9.31,2A2.25,2.25,0,0,1,97.19,92.69Z"/><path class="cls-95" d="M87.74,91.41a2.24,2.24,0,0,1-2.16-1.68L82,75.95a2.24,2.24,0,1,1,4.33-1.13l3.59,13.79a2.24,2.24,0,0,1-1.6,2.73A2.26,2.26,0,0,1,87.74,91.41Z"/><path class="cls-95" d="M84.16,77.62a2.24,2.24,0,0,1-.56-4.41l13.79-3.59A2.24,2.24,0,1,1,98.51,74L84.72,77.55A2.25,2.25,0,0,1,84.16,77.62Z"/><path class="cls-95" d="M73.66,81.29a2.23,2.23,0,0,1-.8-0.15l-9.08-3.48a2.24,2.24,0,1,1,1.6-4.18l6,2.31V69.23A2.23,2.23,0,0,1,73.68,67h0a2.23,2.23,0,0,1,2.23,2.24l0,9.82A2.24,2.24,0,0,1,73.66,81.29Z"/><path class="cls-95" d="M63.47,66.07a2.23,2.23,0,0,1-1.16-.32l-29.77-18L25.41,50a2.24,2.24,0,0,1-2.82-1.5l-2.71-9.12a2.24,2.24,0,0,1,4.29-1.27L26.23,45l5.93-1.88a2.24,2.24,0,0,1,1.84.22L64.63,61.92A2.24,2.24,0,0,1,63.47,66.07Z"/><path class="cls-95" d="M63.47,66.07a2.23,2.23,0,0,1-1.16-.32L31.68,47.2a2.24,2.24,0,0,1-1-1.53l-1.08-6.12-7.09,1.39a2.24,2.24,0,1,1-.86-4.39l9.33-1.83a2.24,2.24,0,0,1,2.63,1.81l1.3,7.37,29.77,18A2.24,2.24,0,0,1,63.47,66.07Z"/><path class="cls-95" d="M44.19,54.4A2.24,2.24,0,0,1,42,52.69l-3.4-13.83A2.24,2.24,0,0,1,43,37.79l3.4,13.83A2.24,2.24,0,0,1,44.19,54.4Z"/><path class="cls-95" d="M30.35,57.8a2.24,2.24,0,0,1-.53-4.41L43.66,50a2.24,2.24,0,0,1,1.07,4.35l-13.83,3.4A2.25,2.25,0,0,1,30.35,57.8Z"/><path class="cls-95" d="M31.14,93.31a2.24,2.24,0,0,1-.46,0l-9.3-2a2.24,2.24,0,1,1,.93-4.38l7.07,1.5,1.17-6.11a2.24,2.24,0,0,1,1.07-1.51L62.54,62.71a2.24,2.24,0,1,1,2.26,3.87l-30,17.56-1.41,7.35A2.24,2.24,0,0,1,31.14,93.31Z"/><path class="cls-95" d="M21.84,91.34a2.24,2.24,0,0,1-2.14-2.91l2.85-9.07A2.24,2.24,0,0,1,25.4,77.9l7.1,2.37,30-17.56a2.24,2.24,0,1,1,2.26,3.87L33.88,84.66a2.24,2.24,0,0,1-1.84.19l-5.9-2L24,89.77A2.24,2.24,0,0,1,21.84,91.34Z"/><path class="cls-95" d="M44.2,78.26a2.25,2.25,0,0,1-.57-0.07L29.85,74.58A2.24,2.24,0,1,1,31,70.25l13.78,3.61A2.24,2.24,0,0,1,44.2,78.26Z"/><path class="cls-95" d="M40.59,92a2.24,2.24,0,0,1-2.17-2.81L42,75.46a2.24,2.24,0,1,1,4.33,1.14L42.76,90.37A2.24,2.24,0,0,1,40.59,92Z"/><path class="cls-95" d="M54.69,72.13a2.23,2.23,0,0,1-1.1-.29L45,67a2.24,2.24,0,0,1-.33-3.67l7.47-6.22A2.24,2.24,0,0,1,55,60.58l-5,4.14,5.73,3.22A2.24,2.24,0,0,1,54.69,72.13Z"/></svg>